<?xml version="1.0" encoding="UTF-8" standalone="no"?>
<svg
   xmlns:dc="http://purl.org/dc/elements/1.1/"
   xmlns:cc="http://creativecommons.org/ns#"
   xmlns:rdf="http://www.w3.org/1999/02/22-rdf-syntax-ns#"
   xmlns:svg="http://www.w3.org/2000/svg"
   xmlns="http://www.w3.org/2000/svg"
   viewBox="0 0 47.975201 47.975201"
   height="47.975201"
   width="47.975201"
   xml:space="preserve"
   id="svg2"
   version="1.1"><metadata
     id="metadata8"><rdf:RDF><cc:Work
         rdf:about=""><dc:format>image/svg+xml</dc:format><dc:type
           rdf:resource="http://purl.org/dc/dcmitype/StillImage" /></cc:Work></rdf:RDF></metadata><defs
     id="defs6"><clipPath
       id="clipPath18"
       clipPathUnits="userSpaceOnUse"><path
         id="path16"
         d="M 0,35.981 H 35.981 V 0 H 0 Z" /></clipPath></defs><g
     transform="matrix(1.3333333,0,0,-1.3333333,0,47.9752)"
     id="g10"><g
       id="g12"><g
         clip-path="url(#clipPath18)"
         id="g14"><g
           transform="translate(17.9912,35.9814)"
           id="g20"><path
             id="path22"
             style="fill:#ffffff;fill-opacity:1;fill-rule:nonzero;stroke:none"
             d="m 0,0 c 9.936,0 17.99,-8.055 17.99,-17.991 0,-9.936 -8.054,-17.99 -17.99,-17.99 -9.937,0 -17.991,8.054 -17.991,17.99 C -17.991,-8.055 -9.937,0 0,0" /></g><g
           transform="translate(17.9912,25.8564)"
           id="g24"><path
             id="path26"
             style="fill:#d22856;fill-opacity:1;fill-rule:nonzero;stroke:none"
             d="m 0,0 c 4.344,0 7.865,-3.521 7.865,-7.866 0,-4.344 -3.521,-7.865 -7.865,-7.865 -4.345,0 -7.866,3.521 -7.866,7.865 C -7.866,-3.521 -4.345,0 0,0" /></g></g></g></g></svg>